<svg width="48" height="48" viewBox="0 0 48 48" fill="none" xmlns="http://www.w3.org/2000/svg">
<path fill-rule="evenodd" clip-rule="evenodd" d="M29.1902 7.95337L30.4908 11.9841L35.942 11.7499L35.9849 12.749L30.43 12.9876L29.4352 14.7462L28.5648 14.2538L29.5885 12.4442L28.2385 8.26044L29.1902 7.95337ZM41.3417 20.4581L35.0817 21.4932L34.9185 20.5066L41.1786 19.4715L41.3417 20.4581ZM11.5547 34.011L17.2507 30.3861L16.7138 29.5425L11.0178 33.1673L11.5547 34.011ZM7.38377 22.0735C7.10858 22.0506 6.86693 22.2551 6.84403 22.5303C6.82114 22.8055 7.02566 23.0471 7.30085 23.07L13.4627 23.5827C13.7379 23.6056 13.9795 23.4011 14.0024 23.1259C14.0253 22.8507 13.8208 22.6091 13.5456 22.5862L7.38377 22.0735ZM17.7398 9.01188C18.0094 9.07178 18.1794 9.33887 18.1195 9.60844L17.1627 13.9137L18.5605 16.2426C18.7026 16.4794 18.6259 16.7865 18.3891 16.9287C18.1523 17.0708 17.8452 16.994 17.7031 16.7572L16.3057 14.429L12.012 13.249C11.7458 13.1758 11.5892 12.9007 11.6624 12.6344C11.7356 12.3681 12.0108 12.2116 12.277 12.2848L16.2573 13.3786L17.1433 9.39151C17.2032 9.12194 17.4703 8.95198 17.7398 9.01188ZM19.7528 38.8601C19.6558 39.1187 19.7868 39.4069 20.0454 39.5038C20.3039 39.6008 20.5922 39.4698 20.6891 39.2112L22.2426 35.0688C22.3395 34.8103 22.2085 34.5221 21.95 34.4251C21.6914 34.3281 21.4032 34.4591 21.3063 34.7177L19.7528 38.8601Z" fill="black"/>
<path fill-rule="evenodd" clip-rule="evenodd" d="M24.6313 36C30.7065 36 35.6313 31.0751 35.6313 25C35.6313 18.9249 30.7065 14 24.6313 14C18.5562 14 13.6313 18.9249 13.6313 25C13.6313 31.0751 18.5562 36 24.6313 36ZM35.0423 34.4646L34.6317 34.8752L32.3715 32.9241L32.3062 32.9998L34.5608 34.9461L34.4646 35.0423C33.6557 35.8512 33.6557 37.1626 34.4646 37.9715L38.4285 41.9354C39.2374 42.7443 40.5488 42.7443 41.3577 41.9354L41.9354 41.3577C42.7443 40.5488 42.7443 39.2374 41.9354 38.4285L37.9715 34.4646C37.1626 33.6557 35.8512 33.6557 35.0423 34.4646Z" fill="white"/>
<path d="M34.6317 34.8752L34.3049 35.2537L34.6567 35.5573L34.9852 35.2288L34.6317 34.8752ZM32.3715 32.9241L32.6983 32.5456L32.3198 32.2189L31.9931 32.5973L32.3715 32.9241ZM32.3062 32.9998L31.9277 32.673L31.601 33.0515L31.9795 33.3782L32.3062 32.9998ZM34.5608 34.9461L34.9143 35.2997L35.2948 34.9192L34.8875 34.5676L34.5608 34.9461ZM41.3577 41.9354L41.0041 41.5818L41.0041 41.5818L41.3577 41.9354ZM41.9354 41.3577L42.2889 41.7112L42.2889 41.7112L41.9354 41.3577ZM35.1313 25C35.1313 30.799 30.4303 35.5 24.6313 35.5V36.5C30.9826 36.5 36.1313 31.3513 36.1313 25H35.1313ZM24.6313 14.5C30.4303 14.5 35.1313 19.201 35.1313 25H36.1313C36.1313 18.6487 30.9826 13.5 24.6313 13.5V14.5ZM14.1313 25C14.1313 19.201 18.8324 14.5 24.6313 14.5V13.5C18.2801 13.5 13.1313 18.6487 13.1313 25H14.1313ZM24.6313 35.5C18.8324 35.5 14.1313 30.799 14.1313 25H13.1313C13.1313 31.3513 18.2801 36.5 24.6313 36.5V35.5ZM34.9852 35.2288L35.3958 34.8182L34.6887 34.111L34.2781 34.5217L34.9852 35.2288ZM32.0448 33.3025L34.3049 35.2537L34.9584 34.4967L32.6983 32.5456L32.0448 33.3025ZM32.6847 33.3265L32.75 33.2508L31.9931 32.5973L31.9277 32.673L32.6847 33.3265ZM34.8875 34.5676L32.6329 32.6213L31.9795 33.3782L34.234 35.3246L34.8875 34.5676ZM34.8182 35.3958L34.9143 35.2997L34.2072 34.5926L34.111 34.6887L34.8182 35.3958ZM34.8182 37.6179C34.2045 37.0043 34.2045 36.0095 34.8182 35.3958L34.111 34.6887C33.1069 35.6929 33.1069 37.3209 34.111 38.325L34.8182 37.6179ZM38.782 41.5818L34.8182 37.6179L34.111 38.325L38.0749 42.2889L38.782 41.5818ZM41.0041 41.5818C40.3905 42.1954 39.3957 42.1954 38.782 41.5818L38.0749 42.2889C39.0791 43.2931 40.7071 43.2931 41.7112 42.2889L41.0041 41.5818ZM41.5818 41.0041L41.0041 41.5818L41.7112 42.2889L42.2889 41.7112L41.5818 41.0041ZM41.5818 38.782C42.1954 39.3957 42.1954 40.3905 41.5818 41.0041L42.2889 41.7112C43.2931 40.7071 43.2931 39.0791 42.2889 38.0749L41.5818 38.782ZM37.6179 34.8182L41.5818 38.782L42.2889 38.0749L38.325 34.111L37.6179 34.8182ZM35.3958 34.8182C36.0095 34.2045 37.0043 34.2045 37.6179 34.8182L38.325 34.111C37.3209 33.1069 35.6929 33.1069 34.6887 34.111L35.3958 34.8182Z" fill="black"/>
<mask id="path-4-outside-1_3479_974" maskUnits="userSpaceOnUse" x="4" y="4" width="40" height="39" fill="black">
<rect fill="white" x="4" y="4" width="40" height="39"/>
<path fill-rule="evenodd" clip-rule="evenodd" d="M30.7855 7.07126C30.7855 8.21518 29.8582 9.14252 28.7142 9.14252C27.5703 9.14252 26.643 8.21518 26.643 7.07126C26.643 5.92733 27.5703 5 28.7142 5C29.8582 5 30.7855 5.92733 30.7855 7.07126ZM40.3902 21.728C41.494 22.0282 42.6322 21.3768 42.9325 20.273C43.2327 19.1692 42.5813 18.031 41.4775 17.7307C40.3737 17.4305 39.2355 18.0819 38.9352 19.1857C38.635 20.2895 39.2864 21.4277 40.3902 21.728ZM9.45901 35.6298C10.4682 36.1684 11.7229 35.7868 12.2615 34.7776C12.8 33.7684 12.4185 32.5137 11.4092 31.9751C10.4 31.4366 9.1453 31.8181 8.60676 32.8274C8.06822 33.8366 8.44978 35.0913 9.45901 35.6298ZM35.9636 13.285C37.1076 13.285 38.0349 12.3577 38.0349 11.2138C38.0349 10.0699 37.1076 9.14252 35.9636 9.14252C34.8197 9.14252 33.8924 10.0699 33.8924 11.2138C33.8924 12.3577 34.8197 13.285 35.9636 13.285ZM7.32875 20.3847C8.46382 20.5268 9.26878 21.5622 9.1267 22.6972C8.98461 23.8323 7.94927 24.6372 6.8142 24.4952C5.67914 24.3531 4.87417 23.3177 5.01626 22.1827C5.15835 21.0476 6.19369 20.2426 7.32875 20.3847ZM10.0545 14.5589C11.1883 14.7107 12.2305 13.9147 12.3823 12.7808C12.5341 11.647 11.7381 10.6048 10.6043 10.453C9.47046 10.3012 8.42826 11.0973 8.27645 12.2311C8.12464 13.3649 8.9207 14.4071 10.0545 14.5589ZM20.0123 8.6027C19.8605 9.73651 18.8183 10.5326 17.6845 10.3808C16.5507 10.2289 15.7547 9.18674 15.9065 8.05294C16.0583 6.91913 17.1005 6.12307 18.2343 6.27488C19.3681 6.4267 20.1642 7.4689 20.0123 8.6027ZM19.7028 38.0001C20.8468 38.0001 21.7741 38.9274 21.7741 40.0713C21.7741 41.2152 20.8468 42.1426 19.7028 42.1426C18.5589 42.1426 17.6316 41.2152 17.6316 40.0713C17.6316 38.9274 18.5589 38.0001 19.7028 38.0001Z"/>
</mask>
<path fill-rule="evenodd" clip-rule="evenodd" d="M30.7855 7.07126C30.7855 8.21518 29.8582 9.14252 28.7142 9.14252C27.5703 9.14252 26.643 8.21518 26.643 7.07126C26.643 5.92733 27.5703 5 28.7142 5C29.8582 5 30.7855 5.92733 30.7855 7.07126ZM40.3902 21.728C41.494 22.0282 42.6322 21.3768 42.9325 20.273C43.2327 19.1692 42.5813 18.031 41.4775 17.7307C40.3737 17.4305 39.2355 18.0819 38.9352 19.1857C38.635 20.2895 39.2864 21.4277 40.3902 21.728ZM9.45901 35.6298C10.4682 36.1684 11.7229 35.7868 12.2615 34.7776C12.8 33.7684 12.4185 32.5137 11.4092 31.9751C10.4 31.4366 9.1453 31.8181 8.60676 32.8274C8.06822 33.8366 8.44978 35.0913 9.45901 35.6298ZM35.9636 13.285C37.1076 13.285 38.0349 12.3577 38.0349 11.2138C38.0349 10.0699 37.1076 9.14252 35.9636 9.14252C34.8197 9.14252 33.8924 10.0699 33.8924 11.2138C33.8924 12.3577 34.8197 13.285 35.9636 13.285ZM7.32875 20.3847C8.46382 20.5268 9.26878 21.5622 9.1267 22.6972C8.98461 23.8323 7.94927 24.6372 6.8142 24.4952C5.67914 24.3531 4.87417 23.3177 5.01626 22.1827C5.15835 21.0476 6.19369 20.2426 7.32875 20.3847ZM10.0545 14.5589C11.1883 14.7107 12.2305 13.9147 12.3823 12.7808C12.5341 11.647 11.7381 10.6048 10.6043 10.453C9.47046 10.3012 8.42826 11.0973 8.27645 12.2311C8.12464 13.3649 8.9207 14.4071 10.0545 14.5589ZM20.0123 8.6027C19.8605 9.73651 18.8183 10.5326 17.6845 10.3808C16.5507 10.2289 15.7547 9.18674 15.9065 8.05294C16.0583 6.91913 17.1005 6.12307 18.2343 6.27488C19.3681 6.4267 20.1642 7.4689 20.0123 8.6027ZM19.7028 38.0001C20.8468 38.0001 21.7741 38.9274 21.7741 40.0713C21.7741 41.2152 20.8468 42.1426 19.7028 42.1426C18.5589 42.1426 17.6316 41.2152 17.6316 40.0713C17.6316 38.9274 18.5589 38.0001 19.7028 38.0001Z" fill="#49BCFF"/>
<path fill-rule="evenodd" clip-rule="evenodd" d="M30.7855 7.07126C30.7855 8.21518 29.8582 9.14252 28.7142 9.14252C27.5703 9.14252 26.643 8.21518 26.643 7.07126C26.643 5.92733 27.5703 5 28.7142 5C29.8582 5 30.7855 5.92733 30.7855 7.07126ZM40.3902 21.728C41.494 22.0282 42.6322 21.3768 42.9325 20.273C43.2327 19.1692 42.5813 18.031 41.4775 17.7307C40.3737 17.4305 39.2355 18.0819 38.9352 19.1857C38.635 20.2895 39.2864 21.4277 40.3902 21.728ZM9.45901 35.6298C10.4682 36.1684 11.7229 35.7868 12.2615 34.7776C12.8 33.7684 12.4185 32.5137 11.4092 31.9751C10.4 31.4366 9.1453 31.8181 8.60676 32.8274C8.06822 33.8366 8.44978 35.0913 9.45901 35.6298ZM35.9636 13.285C37.1076 13.285 38.0349 12.3577 38.0349 11.2138C38.0349 10.0699 37.1076 9.14252 35.9636 9.14252C34.8197 9.14252 33.8924 10.0699 33.8924 11.2138C33.8924 12.3577 34.8197 13.285 35.9636 13.285ZM7.32875 20.3847C8.46382 20.5268 9.26878 21.5622 9.1267 22.6972C8.98461 23.8323 7.94927 24.6372 6.8142 24.4952C5.67914 24.3531 4.87417 23.3177 5.01626 22.1827C5.15835 21.0476 6.19369 20.2426 7.32875 20.3847ZM10.0545 14.5589C11.1883 14.7107 12.2305 13.9147 12.3823 12.7808C12.5341 11.647 11.7381 10.6048 10.6043 10.453C9.47046 10.3012 8.42826 11.0973 8.27645 12.2311C8.12464 13.3649 8.9207 14.4071 10.0545 14.5589ZM20.0123 8.6027C19.8605 9.73651 18.8183 10.5326 17.6845 10.3808C16.5507 10.2289 15.7547 9.18674 15.9065 8.05294C16.0583 6.91913 17.1005 6.12307 18.2343 6.27488C19.3681 6.4267 20.1642 7.4689 20.0123 8.6027ZM19.7028 38.0001C20.8468 38.0001 21.7741 38.9274 21.7741 40.0713C21.7741 41.2152 20.8468 42.1426 19.7028 42.1426C18.5589 42.1426 17.6316 41.2152 17.6316 40.0713C17.6316 38.9274 18.5589 38.0001 19.7028 38.0001Z" fill="url(#paint0_linear_3479_974)"/>
<path d="M41.4775 17.7307L41.32 18.3097L41.32 18.3097L41.4775 17.7307ZM12.2615 34.7776L11.7321 34.4951L11.7321 34.4951L12.2615 34.7776ZM9.45901 35.6298L9.17654 36.1592L9.17654 36.1592L9.45901 35.6298ZM9.1267 22.6972L9.72205 22.7717L9.72205 22.7717L9.1267 22.6972ZM7.32875 20.3847L7.40328 19.7894L7.40328 19.7894L7.32875 20.3847ZM6.8142 24.4952L6.73967 25.0905L6.73967 25.0905L6.8142 24.4952ZM5.01626 22.1827L4.42091 22.1081L5.01626 22.1827ZM10.0545 14.5589L9.97488 15.1536L9.97488 15.1536L10.0545 14.5589ZM10.6043 10.453L10.5246 11.0477L10.5246 11.0477L10.6043 10.453ZM17.6845 10.3808L17.7642 9.78606L17.7642 9.78606L17.6845 10.3808ZM20.0123 8.6027L19.4176 8.52307L19.4176 8.52307L20.0123 8.6027ZM18.2343 6.27488L18.3139 5.68019L18.3139 5.68019L18.2343 6.27488ZM28.7142 9.74252C30.1895 9.74252 31.3855 8.54655 31.3855 7.07126H30.1855C30.1855 7.88381 29.5268 8.54252 28.7142 8.54252V9.74252ZM26.043 7.07126C26.043 8.54655 27.2389 9.74252 28.7142 9.74252V8.54252C27.9017 8.54252 27.243 7.88381 27.243 7.07126H26.043ZM28.7142 4.4C27.2389 4.4 26.043 5.59596 26.043 7.07126H27.243C27.243 6.2587 27.9017 5.6 28.7142 5.6V4.4ZM31.3855 7.07126C31.3855 5.59596 30.1895 4.4 28.7142 4.4V5.6C29.5268 5.6 30.1855 6.2587 30.1855 7.07126H31.3855ZM42.3535 20.1155C42.1403 20.8996 41.3317 21.3623 40.5477 21.149L40.2327 22.3069C41.6563 22.6942 43.1242 21.8541 43.5115 20.4305L42.3535 20.1155ZM41.32 18.3097C42.1041 18.5229 42.5668 19.3315 42.3535 20.1155L43.5115 20.4305C43.8987 19.0069 43.0586 17.539 41.635 17.1517L41.32 18.3097ZM39.5142 19.3432C39.7275 18.5591 40.536 18.0964 41.32 18.3097L41.635 17.1517C40.2114 16.7645 38.7435 17.6046 38.3563 19.0282L39.5142 19.3432ZM40.5477 21.149C39.7636 20.9357 39.3009 20.1272 39.5142 19.3432L38.3563 19.0282C37.969 20.4518 38.8091 21.9197 40.2327 22.3069L40.5477 21.149ZM11.7321 34.4951C11.3496 35.212 10.4584 35.483 9.74148 35.1005L9.17654 36.1592C10.4781 36.8537 12.0963 36.3616 12.7908 35.0601L11.7321 34.4951ZM11.1268 32.5045C11.8436 32.887 12.1147 33.7783 11.7321 34.4951L12.7908 35.0601C13.4854 33.7585 12.9933 32.1403 11.6917 31.4458L11.1268 32.5045ZM9.13611 33.1098C9.51865 32.393 10.4099 32.1219 11.1268 32.5045L11.6917 31.4458C10.3901 30.7512 8.77196 31.2433 8.07741 32.5449L9.13611 33.1098ZM9.74148 35.1005C9.0246 34.718 8.75357 33.8267 9.13611 33.1098L8.07741 32.5449C7.38286 33.8465 7.87496 35.4646 9.17654 36.1592L9.74148 35.1005ZM37.4349 11.2138C37.4349 12.0263 36.7762 12.685 35.9636 12.685V13.885C37.4389 13.885 38.6349 12.6891 38.6349 11.2138H37.4349ZM35.9636 9.74252C36.7762 9.74252 37.4349 10.4012 37.4349 11.2138H38.6349C38.6349 9.73848 37.4389 8.54252 35.9636 8.54252V9.74252ZM34.4924 11.2138C34.4924 10.4012 35.1511 9.74252 35.9636 9.74252V8.54252C34.4884 8.54252 33.2924 9.73848 33.2924 11.2138H34.4924ZM35.9636 12.685C35.1511 12.685 34.4924 12.0263 34.4924 11.2138H33.2924C33.2924 12.6891 34.4884 13.885 35.9636 13.885V12.685ZM9.72205 22.7717C9.9053 21.3079 8.86715 19.9726 7.40328 19.7894L7.25423 20.9801C8.06049 21.081 8.63227 21.8164 8.53134 22.6227L9.72205 22.7717ZM6.73967 25.0905C8.20354 25.2738 9.5388 24.2356 9.72205 22.7717L8.53134 22.6227C8.43041 23.429 7.69499 24.0007 6.88873 23.8998L6.73967 25.0905ZM4.42091 22.1081C4.23766 23.572 5.2758 24.9073 6.73967 25.0905L6.88873 23.8998C6.08247 23.7989 5.51068 23.0635 5.61161 22.2572L4.42091 22.1081ZM7.40328 19.7894C5.93941 19.6061 4.60416 20.6443 4.42091 22.1081L5.61161 22.2572C5.71254 21.4509 6.44796 20.8791 7.25423 20.9801L7.40328 19.7894ZM11.7876 12.7012C11.6798 13.5066 10.9395 14.072 10.1341 13.9642L9.97488 15.1536C11.4371 15.3494 12.7812 14.3227 12.977 12.8605L11.7876 12.7012ZM10.5246 11.0477C11.33 11.1556 11.8955 11.8959 11.7876 12.7012L12.977 12.8605C13.1728 11.3982 12.1461 10.0541 10.6839 9.85834L10.5246 11.0477ZM8.87114 12.3107C8.97898 11.5053 9.71928 10.9399 10.5246 11.0477L10.6839 9.85834C9.22165 9.66255 7.87755 10.6892 7.68176 12.1515L8.87114 12.3107ZM10.1341 13.9642C9.32877 13.8564 8.76331 13.1161 8.87114 12.3107L7.68176 12.1515C7.48597 13.6137 8.51263 14.9578 9.97488 15.1536L10.1341 13.9642ZM17.6049 10.9754C19.0671 11.1712 20.4112 10.1446 20.607 8.68233L19.4176 8.52307C19.3098 9.32844 18.5695 9.8939 17.7642 9.78606L17.6049 10.9754ZM15.3118 7.97331C15.116 9.43555 16.1426 10.7797 17.6049 10.9754L17.7642 9.78606C16.9588 9.67823 16.3933 8.93793 16.5012 8.13256L15.3118 7.97331ZM18.3139 5.68019C16.8517 5.4844 15.5076 6.51106 15.3118 7.97331L16.5012 8.13256C16.609 7.3272 17.3493 6.76174 18.1547 6.86958L18.3139 5.68019ZM20.607 8.68233C20.8028 7.22008 19.7762 5.87598 18.3139 5.68019L18.1547 6.86958C18.96 6.97741 19.5255 7.71771 19.4176 8.52307L20.607 8.68233ZM22.3741 40.0713C22.3741 38.596 21.1781 37.4001 19.7028 37.4001V38.6001C20.5154 38.6001 21.1741 39.2588 21.1741 40.0713H22.3741ZM19.7028 42.7426C21.1781 42.7426 22.3741 41.5466 22.3741 40.0713H21.1741C21.1741 40.8839 20.5154 41.5426 19.7028 41.5426V42.7426ZM17.0316 40.0713C17.0316 41.5466 18.2275 42.7426 19.7028 42.7426V41.5426C18.8903 41.5426 18.2316 40.8839 18.2316 40.0713H17.0316ZM19.7028 37.4001C18.2275 37.4001 17.0316 38.596 17.0316 40.0713H18.2316C18.2316 39.2588 18.8903 38.6001 19.7028 38.6001V37.4001Z" fill="white" mask="url(#path-4-outside-1_3479_974)"/>
<path d="M20.2714 29.3918H18.5237L21.7057 20.3536H23.7269L26.9132 29.3918H25.1656L22.7516 22.2072H22.681L20.2714 29.3918ZM20.3287 25.8481H25.095V27.1632H20.3287V25.8481ZM29.741 20.3536V29.3918H28.1037V20.3536H29.741Z" fill="black"/>
<defs>
<linearGradient id="paint0_linear_3479_974" x1="6.79706" y1="4.48219" x2="32.8885" y2="46.0518" gradientUnits="userSpaceOnUse">
<stop stop-color="#42E8CD"/>
<stop offset="1" stop-color="#7F47FF"/>
</linearGradient>
</defs>
</svg>
