<svg width="16" height="16" viewBox="0 0 16 16" fill="none" xmlns="http://www.w3.org/2000/svg">
<path d="M7.5625 10.518V15H8.4375V9.63277L10.7642 13.6628C11.0275 13.534 11.2805 13.3874 11.5216 13.2246L8.9746 8.81305L11.7795 9.83396C11.9061 9.57362 12.0065 9.29825 12.0775 9.01125L10.5011 8.4375H15V7.5625H9.63274L13.6628 5.23576C13.534 4.97247 13.3874 4.71949 13.2246 4.47839L8.83919 7.0103L9.85147 4.22908C9.59169 4.10129 9.31678 3.99955 9.03016 3.92728L8.4375 5.55559V1H7.5625V6.36722L5.23577 2.33721C4.97248 2.46598 4.7195 2.61256 4.47839 2.7754L7.01481 7.16859L4.22652 6.15374C4.09909 6.41368 3.99774 6.68873 3.92586 6.97546L5.53873 7.5625H1V8.4375H6.3672L2.33722 10.7642C2.46598 11.0275 2.61257 11.2805 2.7754 11.5216L7.19472 8.97009L6.17126 11.782C6.43175 11.9082 6.70726 12.0083 6.99438 12.0789L7.5625 10.518Z" fill="url(#paint0_linear_4_1492)"/>
<defs>
<linearGradient id="paint0_linear_4_1492" x1="3.975" y1="2.4875" x2="11.22" y2="14.23" gradientUnits="userSpaceOnUse">
<stop stop-color="#9D41FF"/>
<stop offset="0.468794" stop-color="#2858FF"/>
<stop offset="0.770884" stop-color="#29B8FF"/>
<stop offset="1" stop-color="#00F0FF"/>
</linearGradient>
</defs>
</svg>
